<svg width="51" height="51" viewBox="0 0 51 51" fill="none" xmlns="http://www.w3.org/2000/svg">
<rect width="50.4" height="50.4" rx="5.76" fill="white"/>
<path d="M15.8645 38.2V13.0654H32.5063V17.4468H21.1786V23.4359H31.4018V27.8172H21.1786V38.2H15.8645Z" fill="#020617"/>
<rect x="30.9597" y="22.9199" width="1.44" height="1.44" fill="#020617"/>
<rect x="30.9597" y="21.48" width="1.44" height="1.44" fill="#020617"/>
<rect x="30.9597" y="18.6" width="1.44" height="1.44" fill="#020617"/>
<rect x="33.8396" y="21.48" width="1.44" height="1.44" fill="#020617"/>
<rect x="35.28" y="18.6" width="1.44" height="1.44" fill="#020617"/>
<rect x="22.3198" y="17.16" width="1.44" height="1.44" fill="#020617"/>
<rect x="32.3997" y="20.0399" width="1.44" height="1.44" fill="#020617"/>
<rect x="29.5198" y="21.48" width="1.44" height="1.44" fill="#020617"/>
<rect x="15.1199" y="35.88" width="1.44" height="1.44" fill="#020617"/>
<rect x="16.5598" y="37.3199" width="1.44" height="1.44" fill="#020617"/>
<rect x="13.6799" y="38.76" width="1.44" height="1.44" fill="#020617"/>
<rect x="23.7598" y="11.4" width="1.44" height="1.44" fill="white"/>
<rect x="17.9998" y="17.16" width="1.44" height="1.44" fill="white"/>
<rect x="16.5598" y="20.0399" width="1.44" height="1.44" fill="white"/>
<rect x="17.9998" y="21.48" width="1.44" height="1.44" fill="white"/>
<rect x="23.7598" y="24.36" width="1.44" height="1.44" fill="white"/>
<rect x="26.6396" y="25.7999" width="1.44" height="1.44" fill="white"/>
<rect x="26.6396" y="21.48" width="1.44" height="1.44" fill="white"/>
<rect x="20.8799" y="21.48" width="1.44" height="1.44" fill="white"/>
<rect x="17.9998" y="25.7999" width="1.44" height="1.44" fill="white"/>
<rect x="20.8799" y="30.12" width="1.44" height="1.44" fill="white"/>
<rect x="15.1199" y="33" width="1.44" height="1.44" fill="white"/>
<rect x="16.5598" y="12.84" width="1.44" height="1.44" fill="white"/>
<rect x="28.0798" y="14.28" width="1.44" height="1.44" fill="white"/>
<rect x="30.9597" y="15.72" width="1.44" height="1.44" fill="white"/>
<rect x="32.3997" y="15.72" width="1.44" height="1.44" fill="#020617"/>
</svg>
